<svg xmlns="http://www.w3.org/2000/svg" viewBox="0 0 65.5 65.5"><defs><style>.cls-1{fill:#fff;}.cls-2{fill:#bdc3d8;}.cls-3{fill:#404c55;}.cls-4{fill:#51efff;}</style></defs><g id="Layer_2" data-name="Layer 2"><g id="layer_1-2" data-name="layer 1"><path class="cls-1" d="M4.75,8.75h32a4,4,0,0,1,4,4v40a4,4,0,0,1-4,4h-26l-10,8v-52A4,4,0,0,1,4.75,8.75Z"/><path class="cls-2" d="M7.75,21.75h29a4,4,0,0,1,4,4v27a4,4,0,0,1-4,4h-26l-5,4v-37A2,2,0,0,1,7.75,21.75Z"/><path class="cls-3" d="M.75,65.5a.78.78,0,0,1-.33-.07A.75.75,0,0,1,0,64.75v-52A4.75,4.75,0,0,1,4.75,8h32a4.75,4.75,0,0,1,4.75,4.75v40a4.75,4.75,0,0,1-4.75,4.75H11L1.22,65.34A.74.74,0,0,1,.75,65.5Zm4-56A3.26,3.26,0,0,0,1.5,12.75V63.19l8.78-7a.78.78,0,0,1,.47-.16h26A3.26,3.26,0,0,0,40,52.75v-40A3.26,3.26,0,0,0,36.75,9.5Z"/><path class="cls-1" d="M12.75.75h38a4,4,0,0,1,4,4v52l-10-8h-32a4,4,0,0,1-4-4v-40A4,4,0,0,1,12.75.75Z"/><path class="cls-2" d="M24.75,11.75h30v45l-10-8h-24v-33A4,4,0,0,1,24.75,11.75Z"/><path class="cls-3" d="M54.75,57.5a.81.81,0,0,1-.47-.16L44.49,49.5H12.75A4.75,4.75,0,0,1,8,44.75v-40A4.75,4.75,0,0,1,12.75,0h38A4.75,4.75,0,0,1,55.5,4.75v52a.77.77,0,0,1-.42.68A1,1,0,0,1,54.75,57.5Zm-42-56A3.26,3.26,0,0,0,9.5,4.75v40A3.26,3.26,0,0,0,12.75,48h32a.78.78,0,0,1,.47.16l8.78,7V4.75A3.26,3.26,0,0,0,50.75,1.5Z"/><path class="cls-3" d="M34.44,53.5H23.66a.75.75,0,1,1,0-1.5H34.44a.75.75,0,0,1,0,1.5Z"/><path class="cls-3" d="M19.66,53.5H17.44a.75.75,0,1,1,0-1.5h2.22a.75.75,0,0,1,0,1.5Z"/><path class="cls-4" d="M4.75,3.5h-4A.75.75,0,0,1,.75,2h4a.75.75,0,0,1,0,1.5Z"/><path class="cls-4" d="M2.75,5.5A.76.76,0,0,1,2,4.75v-4a.75.75,0,0,1,1.5,0v4A.76.76,0,0,1,2.75,5.5Z"/><path class="cls-4" d="M38.75,63.5h-4a.75.75,0,0,1,0-1.5h4a.75.75,0,0,1,0,1.5Z"/><path class="cls-4" d="M36.75,65.5a.75.75,0,0,1-.75-.75v-4a.75.75,0,0,1,1.5,0v4A.76.76,0,0,1,36.75,65.5Z"/><path class="cls-4" d="M48.75,58.5h-4a.75.75,0,0,1,0-1.5h4a.75.75,0,0,1,0,1.5Z"/><path class="cls-4" d="M46.75,60.5a.76.76,0,0,1-.75-.75v-4a.75.75,0,0,1,1.5,0v4A.76.76,0,0,1,46.75,60.5Z"/><path class="cls-4" d="M63.77,50.5h-4a.75.75,0,0,1,0-1.5h4a.75.75,0,1,1,0,1.5Z"/><path class="cls-4" d="M61.77,52.5a.76.76,0,0,1-.75-.75v-4a.75.75,0,0,1,1.5,0v4A.75.75,0,0,1,61.77,52.5Z"/><polygon class="cls-1" points="32.75 17.75 58.75 10.75 58.75 38.75 32.75 31.75 32.75 17.75"/><polygon class="cls-2" points="58.75 10.75 58.75 38.75 40.75 33.9 58.75 10.75"/><polygon class="cls-1" points="58.75 10.75 64.75 5.75 64.75 43.75 58.75 38.75 58.75 10.75"/><polygon class="cls-2" points="64.75 5.75 64.75 43.75 60.79 40.45 64.75 5.75"/><path class="cls-3" d="M58.75,39.5a.63.63,0,0,1-.19,0l-26-7a.75.75,0,0,1-.56-.72v-14a.74.74,0,0,1,.56-.72l26-7a.76.76,0,0,1,.65.12.79.79,0,0,1,.29.6v28a.79.79,0,0,1-.29.6A.77.77,0,0,1,58.75,39.5ZM33.5,31.17,58,37.77v-26L33.5,18.32Z"/><path class="cls-3" d="M64.75,44.5a.78.78,0,0,1-.48-.17l-6-5a.78.78,0,0,1-.27-.58v-28a.78.78,0,0,1,.27-.58l6-5a.78.78,0,0,1,.8-.1.75.75,0,0,1,.43.68v38a.76.76,0,0,1-.43.68A.71.71,0,0,1,64.75,44.5ZM59.5,38.4,64,42.15V7.35L59.5,11.1Z"/><path class="cls-1" d="M19.75,17.75h13a0,0,0,0,1,0,0v14a0,0,0,0,1,0,0h-13a3,3,0,0,1-3-3v-8A3,3,0,0,1,19.75,17.75Z"/><polygon class="cls-2" points="28.75 23.75 32.75 23.75 32.75 31.75 23.75 31.75 28.75 23.75"/><path class="cls-1" d="M26.75,31.75h6a0,0,0,0,1,0,0v12a0,0,0,0,1,0,0h-2a4,4,0,0,1-4-4v-8A0,0,0,0,1,26.75,31.75Z"/><path class="cls-2" d="M30.75,35.75h2a0,0,0,0,1,0,0v8a0,0,0,0,1,0,0h-3a0,0,0,0,1,0,0v-7A1,1,0,0,1,30.75,35.75Z"/><path class="cls-3" d="M32.75,32.5h-13A3.75,3.75,0,0,1,16,28.75v-8A3.75,3.75,0,0,1,19.75,17h13a.76.76,0,0,1,.75.75v14A.76.76,0,0,1,32.75,32.5Zm-13-14a2.25,2.25,0,0,0-2.25,2.25v8A2.25,2.25,0,0,0,19.75,31H32V18.5Z"/><path class="cls-3" d="M32.75,44.5h-2A4.75,4.75,0,0,1,26,39.75v-8a.76.76,0,0,1,.75-.75h6a.76.76,0,0,1,.75.75v12A.76.76,0,0,1,32.75,44.5Zm-5.25-12v7.25A3.26,3.26,0,0,0,30.75,43H32V32.5Z"/><path class="cls-4" d="M43.79,8.5A.75.75,0,0,1,43,7.75v-4a.75.75,0,0,1,1.5,0v4A.76.76,0,0,1,43.79,8.5Z"/><path class="cls-4" d="M45.79,6.5h-4a.75.75,0,0,1,0-1.5h4a.75.75,0,0,1,0,1.5Z"/><circle class="cls-4" cx="37.79" cy="5.75" r="0.75"/><circle class="cls-4" cx="34.79" cy="5.75" r="0.75"/><circle class="cls-4" cx="29.79" cy="5.75" r="0.75"/><circle class="cls-4" cx="23.79" cy="5.75" r="0.75"/><path class="cls-3" d="M24.75,28.5a.76.76,0,0,1-.75-.75v-6a.75.75,0,0,1,1.5,0v6A.76.76,0,0,1,24.75,28.5Z"/><path class="cls-3" d="M28.75,28.5a.76.76,0,0,1-.75-.75v-6a.75.75,0,0,1,1.5,0v6A.76.76,0,0,1,28.75,28.5Z"/><path class="cls-3" d="M20.75,28.5a.76.76,0,0,1-.75-.75v-6a.75.75,0,0,1,1.5,0v6A.76.76,0,0,1,20.75,28.5Z"/></g></g></svg>