<svg xmlns="http://www.w3.org/2000/svg" viewBox="0 0 16 20"><defs><style>.cls-1{fill:#404c55;}</style></defs><g id="Layer_2" data-name="Layer 2"><g id="Layer_1-2" data-name="Layer 1"><path class="cls-1" d="M14,20H2a2,2,0,0,1-2-2V2A2,2,0,0,1,2,0H14a2,2,0,0,1,2,2V18A2,2,0,0,1,14,20ZM14,2H2V18H14Z"/><path class="cls-1" d="M11,10H5A1,1,0,0,1,5,8h6a1,1,0,0,1,0,2Z"/><path class="cls-1" d="M11,13H5a1,1,0,0,1,0-2h6a1,1,0,0,1,0,2Z"/><path class="cls-1" d="M11,16H5a1,1,0,0,1,0-2h6a1,1,0,0,1,0,2Z"/><circle class="cls-1" cx="11" cy="5" r="1"/></g></g></svg>