<svg xmlns="http://www.w3.org/2000/svg" viewBox="0 0 74.5 65.5"><defs><style>.cls-1{fill:#bdc3d8;}.cls-2{fill:#fff;}.cls-3{fill:#404c55;}.cls-4{fill:#51edff;}</style></defs><g id="Layer_2" data-name="Layer 2"><g id="layer_1-2" data-name="layer 1"><rect class="cls-1" x="7.75" y="22.75" width="48" height="42"/><path class="cls-2" d="M7.75,22.75h43a0,0,0,0,1,0,0v22a18,18,0,0,1-18,18h-25a0,0,0,0,1,0,0v-40A0,0,0,0,1,7.75,22.75Z"/><path class="cls-3" d="M55.75,65.5h-48A.76.76,0,0,1,7,64.75v-42A.76.76,0,0,1,7.75,22h48a.76.76,0,0,1,.75.75v42A.76.76,0,0,1,55.75,65.5ZM8.5,64H55V23.5H8.5Z"/><polygon class="cls-1" points="5.75 14.75 19.75 0.75 69.75 0.75 55.75 14.75 5.75 14.75"/><path class="cls-2" d="M8.75,11.75l11-11h46L55.34,11.16a2,2,0,0,1-1.42.59Z"/><path class="cls-3" d="M55.75,15.5h-50a.75.75,0,0,1-.53-1.28l14-14A.75.75,0,0,1,19.75,0h50a.74.74,0,0,1,.69.46.74.74,0,0,1-.16.82l-14,14A.75.75,0,0,1,55.75,15.5ZM7.56,14H55.44L67.94,1.5H20.06Z"/><polygon class="cls-1" points="55.75 22.75 69.75 8.75 69.75 0.75 55.75 14.75 55.75 22.75"/><path class="cls-2" d="M55.75,19.75,67.16,8.34a2,2,0,0,0,.59-1.42V2.75l-12,12Z"/><path class="cls-3" d="M55.75,23.5a.75.75,0,0,1-.29-.06.74.74,0,0,1-.46-.69v-8a.75.75,0,0,1,.22-.53l14-14A.74.74,0,0,1,70,.06a.74.74,0,0,1,.46.69v8a.75.75,0,0,1-.22.53l-14,14A.75.75,0,0,1,55.75,23.5Zm.75-8.44v5.88L69,8.44V2.56Z"/><polygon class="cls-1" points="55.75 64.75 68.75 51.75 68.75 9.75 55.75 22.75 55.75 64.75"/><path class="cls-2" d="M55.75,58.75l9.41-9.41a2,2,0,0,0,.59-1.42V12.75l-10,10Z"/><path class="cls-3" d="M55.75,65.5a.75.75,0,0,1-.29-.06.74.74,0,0,1-.46-.69v-42a.75.75,0,0,1,.22-.53l13-13A.76.76,0,0,1,69,9.06a.74.74,0,0,1,.46.69v42a.75.75,0,0,1-.22.53l-13,13A.75.75,0,0,1,55.75,65.5Zm.75-42.44V62.94L68,51.44V11.56Z"/><rect class="cls-1" x="5.75" y="14.75" width="50" height="8"/><path class="cls-2" d="M5.75,14.75h47a0,0,0,0,1,0,0v4a2,2,0,0,1-2,2h-45a0,0,0,0,1,0,0v-6a0,0,0,0,1,0,0Z"/><path class="cls-3" d="M55.75,23.5h-50A.76.76,0,0,1,5,22.75v-8A.76.76,0,0,1,5.75,14h50a.76.76,0,0,1,.75.75v8A.76.76,0,0,1,55.75,23.5ZM6.5,22H55V15.5H6.5Z"/><path class="cls-3" d="M40.75,19.51a.75.75,0,0,1-.53-.22.77.77,0,0,1-.22-.53.83.83,0,0,1,.21-.54.76.76,0,0,1,1.29.54.74.74,0,0,1-.22.52A.75.75,0,0,1,40.75,19.51Z"/><path class="cls-3" d="M45,18.75a.75.75,0,0,1,.75-.75h0a.76.76,0,0,1,.75.75h0a.75.75,0,0,1-.75.75h0A.74.74,0,0,1,45,18.75Z"/><path class="cls-3" d="M50.75,19.5a.73.73,0,0,1-.75-.75.75.75,0,0,1,1.5,0,.75.75,0,0,1-.22.53A.77.77,0,0,1,50.75,19.5Z"/><path class="cls-2" d="M47,41.75H44.8A13,13,0,0,0,44.05,39l1.86-1.08a.79.79,0,0,0,.3-1.09L45,34.71a.81.81,0,0,0-1.1-.29L42.05,35.5a13.25,13.25,0,0,0-2-2l1.08-1.86a.81.81,0,0,0-.29-1.1l-2.08-1.2a.8.8,0,0,0-1.09.3l-1.08,1.86a13.66,13.66,0,0,0-2.79-.75V28.55a.8.8,0,0,0-.8-.8h-2.4a.8.8,0,0,0-.8.8V30.7a13.66,13.66,0,0,0-2.79.75l-1.08-1.86a.8.8,0,0,0-1.09-.3l-2.08,1.2a.81.81,0,0,0-.29,1.1l1.08,1.86a13.25,13.25,0,0,0-2.05,2l-1.86-1.08a.81.81,0,0,0-1.1.29l-1.2,2.08a.79.79,0,0,0,.3,1.09L19.45,39a13,13,0,0,0-.75,2.79H16.55a.8.8,0,0,0-.8.8V45a.8.8,0,0,0,.8.8H18.7a13,13,0,0,0,.75,2.79l-1.86,1.08a.79.79,0,0,0-.3,1.09l1.2,2.08a.81.81,0,0,0,1.1.29L21.45,52a13.64,13.64,0,0,0,2.05,2l-1.08,1.86a.81.81,0,0,0,.29,1.1l2.08,1.2a.79.79,0,0,0,1.09-.3L27,56.05a13,13,0,0,0,2.79.75V59a.8.8,0,0,0,.8.8H33a.8.8,0,0,0,.8-.8V56.8a13,13,0,0,0,2.79-.75l1.08,1.86a.79.79,0,0,0,1.09.3L40.79,57a.81.81,0,0,0,.29-1.1L40,54.05a13.64,13.64,0,0,0,2-2l1.86,1.07a.81.81,0,0,0,1.1-.29l1.2-2.08a.79.79,0,0,0-.3-1.09l-1.86-1.08a13,13,0,0,0,.75-2.79H47a.8.8,0,0,0,.8-.8v-2.4A.8.8,0,0,0,47,41.75Z"/><path class="cls-1" d="M47,41.75H44.8A13,13,0,0,0,44.05,39l1.86-1.08a.79.79,0,0,0,.3-1.09L45,34.71a.81.81,0,0,0-1.1-.29L42.05,35.5l-.18-.2A14.1,14.1,0,0,1,23.3,53.87l.2.18-1.08,1.86a.81.81,0,0,0,.29,1.1l2.08,1.2a.79.79,0,0,0,1.09-.3L27,56.05a13,13,0,0,0,2.79.75V59a.8.8,0,0,0,.8.8H33a.8.8,0,0,0,.8-.8V56.8a13,13,0,0,0,2.79-.75l1.08,1.86a.79.79,0,0,0,1.09.3L40.79,57a.81.81,0,0,0,.29-1.1L40,54.05a13.64,13.64,0,0,0,2-2l1.86,1.07a.81.81,0,0,0,1.1-.29l1.2-2.08a.79.79,0,0,0-.3-1.09l-1.86-1.08a13,13,0,0,0,.75-2.79H47a.8.8,0,0,0,.8-.8v-2.4A.8.8,0,0,0,47,41.75Z"/><path class="cls-3" d="M33,60.5h-2.4A1.55,1.55,0,0,1,29,59V57.43A15.47,15.47,0,0,1,27.29,57l-.76,1.32a1.55,1.55,0,0,1-.94.72,1.57,1.57,0,0,1-1.18-.15l-2.07-1.2a1.54,1.54,0,0,1-.57-2.12l.76-1.32A14.74,14.74,0,0,1,21.28,53L20,53.73a1.55,1.55,0,0,1-2.12-.57l-1.2-2.07A1.56,1.56,0,0,1,17.21,49l1.32-.76a14.37,14.37,0,0,1-.46-1.71H16.55A1.55,1.55,0,0,1,15,45v-2.4A1.56,1.56,0,0,1,16.55,41h1.52a15.47,15.47,0,0,1,.46-1.71l-1.32-.76a1.52,1.52,0,0,1-.72-.94,1.54,1.54,0,0,1,.15-1.17l1.2-2.08a1.58,1.58,0,0,1,.95-.73,1.55,1.55,0,0,1,1.17.16l1.32.76a14.74,14.74,0,0,1,1.25-1.25L21.77,32a1.54,1.54,0,0,1,.57-2.11l2.07-1.2a1.55,1.55,0,0,1,2.12.56l.76,1.32A15.47,15.47,0,0,1,29,30.07V28.55A1.56,1.56,0,0,1,30.55,27H33a1.56,1.56,0,0,1,1.55,1.55v1.52a14.9,14.9,0,0,1,1.71.46L37,29.21a1.55,1.55,0,0,1,2.12-.56l2.07,1.2A1.54,1.54,0,0,1,41.73,32L41,33.28a14.74,14.74,0,0,1,1.25,1.25l1.32-.76a1.55,1.55,0,0,1,2.12.57l1.2,2.08a1.55,1.55,0,0,1-.57,2.11L45,39.29A15.47,15.47,0,0,1,45.43,41H47a1.56,1.56,0,0,1,1.55,1.55V45A1.55,1.55,0,0,1,47,46.5H45.43A14.9,14.9,0,0,1,45,48.21l1.32.76a1.55,1.55,0,0,1,.72.94,1.53,1.53,0,0,1-.16,1.18l-1.19,2.08a1.56,1.56,0,0,1-2.12.56L42.22,53A14.74,14.74,0,0,1,41,54.22l.76,1.32a1.54,1.54,0,0,1-.57,2.12l-2.07,1.2a1.52,1.52,0,0,1-1.18.15,1.55,1.55,0,0,1-.94-.72L36.21,57a14.9,14.9,0,0,1-1.71.46V59A1.55,1.55,0,0,1,33,60.5Zm-6-5.2a.86.86,0,0,1,.27.05,12.35,12.35,0,0,0,2.63.71.74.74,0,0,1,.64.74V59L33,59l0-2.2a.74.74,0,0,1,.64-.74,12.35,12.35,0,0,0,2.63-.71.76.76,0,0,1,.92.33l1.08,1.86,2.14-1.18-1-1.94a.74.74,0,0,1,.18-1,12.91,12.91,0,0,0,1.92-1.92.74.74,0,0,1,1-.18l1.87,1.07,1.27-2.09-1.89-1.15a.75.75,0,0,1-.32-.92,12.35,12.35,0,0,0,.71-2.63A.74.74,0,0,1,44.8,45H47l0-2.45,0,0H44.8a.74.74,0,0,1-.74-.64,12.51,12.51,0,0,0-.71-2.63.75.75,0,0,1,.32-.92l1.87-1.08-1.18-2.14-1.94,1.06a.75.75,0,0,1-1-.18A12.51,12.51,0,0,0,39.54,34a.74.74,0,0,1-.18-1l1.07-1.87-2.09-1.27-1.15,1.89a.75.75,0,0,1-.92.32,13,13,0,0,0-2.63-.71A.74.74,0,0,1,33,30.7V28.55l-2.45-.05-.05,2.2a.74.74,0,0,1-.64.74,13,13,0,0,0-2.63.71.76.76,0,0,1-.92-.32L25.23,30l-2.14,1.18,1.05,1.94A.74.74,0,0,1,24,34,13,13,0,0,0,22,36a.77.77,0,0,1-1,.18l-1.87-1.08-1.27,2.1,1.89,1.14a.75.75,0,0,1,.32.92,13,13,0,0,0-.71,2.63.74.74,0,0,1-.74.64H16.55L16.5,45l2.2,0a.74.74,0,0,1,.74.64,13,13,0,0,0,.71,2.63.75.75,0,0,1-.32.92L18,50.27l1.18,2.15,1.94-1.06a.74.74,0,0,1,1,.18A12.91,12.91,0,0,0,24,53.46a.74.74,0,0,1,.18,1l-1.07,1.87,2.09,1.27,1.15-1.88A.76.76,0,0,1,27,55.3Z"/><circle class="cls-2" cx="31.75" cy="43.75" r="7.5"/><path class="cls-1" d="M35.56,37.3a7.41,7.41,0,0,1,1,3.8,7.49,7.49,0,0,1-7.5,7.5,7.41,7.41,0,0,1-3.8-1A7.49,7.49,0,1,0,35.56,37.3Z"/><path class="cls-3" d="M31.75,52A8.25,8.25,0,1,1,40,43.75,8.26,8.26,0,0,1,31.75,52Zm0-15a6.75,6.75,0,1,0,6.75,6.75A6.76,6.76,0,0,0,31.75,37Z"/><path class="cls-3" d="M62.25,59a.76.76,0,0,1-.75-.75V9H12.25a.75.75,0,0,1,0-1.5h50a.76.76,0,0,1,.75.75v50A.76.76,0,0,1,62.25,59Z"/><path class="cls-4" d="M4.75,27.54h-4a.75.75,0,0,1,0-1.5h4a.75.75,0,0,1,0,1.5Z"/><path class="cls-4" d="M2.75,29.54A.75.75,0,0,1,2,28.79v-4a.75.75,0,0,1,1.5,0v4A.75.75,0,0,1,2.75,29.54Z"/><circle class="cls-4" cx="2.75" cy="32.79" r="0.75"/><circle class="cls-4" cx="2.75" cy="35.79" r="0.75"/><circle class="cls-4" cx="2.75" cy="40.79" r="0.75"/><circle class="cls-4" cx="2.75" cy="46.8" r="0.75"/><path class="cls-4" d="M73.75,56.3h-4a.75.75,0,0,1,0-1.5h4a.75.75,0,0,1,0,1.5Z"/><path class="cls-4" d="M71.75,58.3a.76.76,0,0,1-.75-.75v-4a.75.75,0,0,1,1.5,0v4A.75.75,0,0,1,71.75,58.3Z"/><circle class="cls-4" cx="71.75" cy="49.55" r="0.75"/><circle class="cls-4" cx="71.75" cy="46.55" r="0.75"/><circle class="cls-4" cx="71.75" cy="41.55" r="0.75"/><circle class="cls-4" cx="71.75" cy="35.54" r="0.75"/></g></g></svg>