<svg xmlns="http://www.w3.org/2000/svg" viewBox="0 0 12.94 20.28"><defs><style>.cls-1{fill:#009eed;}</style></defs><g id="Layer_2" data-name="Layer 2"><g id="Layer_1-2" data-name="Layer 1"><path class="cls-1" d="M10.53,9.77C7,6.3,7.5,1.16,7.5,1.1A1,1,0,0,0,6.62,0h-.3a1,1,0,0,0-.88,1.1c0,.06.52,5.2-3,8.67-2.2,2.15-3,4.78-2,7s3.17,3.47,6.09,3.47,5.2-1.3,6.09-3.48S12.72,11.92,10.53,9.77Zm.18,6.28c-.57,1.4-2.16,2.23-4.24,2.23s-3.66-.83-4.24-2.23,0-3.29,1.59-4.85a11.78,11.78,0,0,0,2.65-4,11.67,11.67,0,0,0,2.66,4C10.72,12.76,11.31,14.58,10.71,16.05Z"/></g></g></svg>