<svg id="Layer_1" data-name="Layer 1" xmlns="http://www.w3.org/2000/svg" viewBox="0 0 20 17"><defs><style>.cls-1{fill:#404c55;fill-rule:evenodd;}</style></defs><path class="cls-1" d="M2,7A3,3,0,0,1,5,4H17a3,3,0,0,1,3,3V8a1,1,0,0,1-2,0V7a1,1,0,0,0-1-1H5A1,1,0,0,0,4,7V18a1,1,0,0,0,1,1H17a1,1,0,0,0,1-1V17a1,1,0,0,1,2,0v1a3,3,0,0,1-3,3H5a3,3,0,0,1-3-3Z" transform="translate(-2 -4)"/><path class="cls-1" d="M13,12.5A2.5,2.5,0,0,1,15.5,10h4a2.5,2.5,0,0,1,0,5h-4A2.5,2.5,0,0,1,13,12.5Zm2.5-.5a.5.5,0,0,0,0,1h4a.5.5,0,0,0,0-1Z" transform="translate(-2 -4)"/></svg>