<svg xmlns="http://www.w3.org/2000/svg" viewBox="0 0 20 19.87"><defs><style>.cls-1{fill:#51edff;fill-rule:evenodd;}</style></defs><g id="Layer_2" data-name="Layer 2"><g id="Layer_1-2" data-name="Layer 1"><path class="cls-1" d="M2,10.87a1,1,0,0,1,1-1H17a1,1,0,0,1,1,1v7a2,2,0,0,1-2,2H4a2,2,0,0,1-2-2Zm2,1v6H16v-6Z"/><path class="cls-1" d="M10,5.87a1,1,0,0,1,1,1v12a1,1,0,0,1-2,0v-12A1,1,0,0,1,10,5.87Z"/><path class="cls-1" d="M0,7.87a2,2,0,0,1,2-2H18a2,2,0,0,1,2,2v2a2,2,0,0,1-2,2H2a2,2,0,0,1-2-2Zm18,0H2v2H18Z"/><path class="cls-1" d="M9.6,6.74a1.17,1.17,0,0,1-.26.1,6.89,6.89,0,0,1-5.79-1A3.84,3.84,0,0,1,2.1,3.82a3.06,3.06,0,0,1,.49-2.56A2.84,2.84,0,0,1,5.15,0,5.39,5.39,0,0,1,7.78,1a7.67,7.67,0,0,1,3.31,4.75,1,1,0,0,1-.85,1.13A.94.94,0,0,1,9.6,6.74ZM6.66,2.64A6.42,6.42,0,0,1,8.73,4.93a4.86,4.86,0,0,1-4-.64,1.85,1.85,0,0,1-.73-1,1.1,1.1,0,0,1,.2-.93A.87.87,0,0,1,5.06,2,3.39,3.39,0,0,1,6.66,2.64Z"/><path class="cls-1" d="M10.5,6.74a1,1,0,0,0,.26.1,6.86,6.86,0,0,0,5.78-1A3.8,3.8,0,0,0,18,3.82a3.09,3.09,0,0,0-.49-2.56A2.84,2.84,0,0,0,14.94,0a5.4,5.4,0,0,0-2.62,1A7.63,7.63,0,0,0,9,5.73a1,1,0,0,0,.84,1.13A1,1,0,0,0,10.5,6.74Zm2.93-4.1a6.61,6.61,0,0,0-2.07,2.29,4.89,4.89,0,0,0,4-.64,1.82,1.82,0,0,0,.72-1,1.1,1.1,0,0,0-.2-.93A.84.84,0,0,0,15,2,3.41,3.41,0,0,0,13.43,2.64Z"/></g></g></svg>