<svg xmlns="http://www.w3.org/2000/svg" viewBox="0 0 18 20"><defs><style>.cls-1{fill:#404c55;}</style></defs><g id="Layer_2" data-name="Layer 2"><g id="Layer_1-2" data-name="Layer 1"><path class="cls-1" d="M13,7a1,1,0,0,1-1-1c0-3.59-1.71-4-3-4S6,2.41,6,6A1,1,0,0,1,4,6C4,.78,7.13,0,9,0s5,.78,5,6A1,1,0,0,1,13,7Z"/><circle class="cls-1" cx="9" cy="12" r="2"/><path class="cls-1" d="M9,16a1,1,0,0,1-1-1V13a1,1,0,0,1,2,0v2A1,1,0,0,1,9,16Z"/><path class="cls-1" d="M15,20H3a3,3,0,0,1-3-3V9A3,3,0,0,1,3,6H15a3,3,0,0,1,3,3v8A3,3,0,0,1,15,20ZM3,8A1,1,0,0,0,2,9v8a1,1,0,0,0,1,1H15a1,1,0,0,0,1-1V9a1,1,0,0,0-1-1Z"/></g></g></svg>