<svg xmlns="http://www.w3.org/2000/svg" viewBox="0 0 20 20"><defs><style>.cls-1{fill:#404c55;fill-rule:evenodd;}</style></defs><g id="Layer_2" data-name="Layer 2"><g id="Layer_1-2" data-name="Layer 1"><path class="cls-1" d="M0,9A3,3,0,0,1,3,6H17a3,3,0,0,1,3,3v8a3,3,0,0,1-3,3H3a3,3,0,0,1-3-3ZM3,8A1,1,0,0,0,2,9v8a1,1,0,0,0,1,1H17a1,1,0,0,0,1-1V9a1,1,0,0,0-1-1Z"/><path class="cls-1" d="M2,6A3,3,0,0,1,5,3H15a3,3,0,0,1,3,3,1,1,0,0,1-2,0,1,1,0,0,0-1-1H5A1,1,0,0,0,4,6,1,1,0,0,1,2,6Z"/><path class="cls-1" d="M4,3A3,3,0,0,1,7,0h6a3,3,0,0,1,3,3,1,1,0,0,1-2,0,1,1,0,0,0-1-1H7A1,1,0,0,0,6,3,1,1,0,0,1,4,3Z"/></g></g></svg>