<svg xmlns="http://www.w3.org/2000/svg" viewBox="0 0 65.5 65.5"><defs><style>.cls-1{fill:#fff;}.cls-2{fill:#bdc3d8;}.cls-3{fill:#404c55;}.cls-4{fill:#51edff;}</style></defs><g id="Layer_2" data-name="Layer 2"><g id="layer_1-2" data-name="layer 1"><path class="cls-1" d="M11.1,54.14H4.65a3.5,3.5,0,0,0-3.5,3.5v3.22a3.5,3.5,0,0,0,3.5,3.5H11.1Z"/><path class="cls-1" d="M18.12,43.12H10.56a2.43,2.43,0,0,0-2.43,2.43V51a2.43,2.43,0,0,0,2.43,2.43h7.56Z"/><path class="cls-1" d="M63.75,42.75h-53a15.66,15.66,0,0,1,0,11h53A8.55,8.55,0,0,1,63.75,42.75Z"/><path class="cls-2" d="M61.75,48.25H20.25a5.5,5.5,0,0,0-5.5,5.5h49A8.36,8.36,0,0,1,61.75,48.25Z"/><path class="cls-1" d="M56.75,53.75h-52a15.66,15.66,0,0,1,0,11h52A8.55,8.55,0,0,1,56.75,53.75Z"/><path class="cls-2" d="M54.75,59.25H24.25a5.5,5.5,0,0,0-5.5,5.5h38A8.36,8.36,0,0,1,54.75,59.25Z"/><path class="cls-3" d="M63.75,54.5h-53a.77.77,0,0,1-.63-.34.75.75,0,0,1-.06-.71,14.78,14.78,0,0,0,0-10.4.75.75,0,0,1,.06-.71.77.77,0,0,1,.63-.34h53a.73.73,0,0,1,.68.44.72.72,0,0,1-.12.8,7.82,7.82,0,0,0,0,10,.72.72,0,0,1,.12.8A.73.73,0,0,1,63.75,54.5ZM11.83,53H62.29a9.49,9.49,0,0,1,0-9.5H11.83A17.05,17.05,0,0,1,11.83,53Z"/><path class="cls-3" d="M56.75,65.5h-52a.77.77,0,0,1-.63-.34.75.75,0,0,1-.06-.71,14.78,14.78,0,0,0,0-10.4.75.75,0,0,1,.06-.71A.77.77,0,0,1,4.75,53h52a.75.75,0,0,1,.68.44.75.75,0,0,1-.12.81,7.81,7.81,0,0,0,0,10,.73.73,0,0,1,.12.8A.75.75,0,0,1,56.75,65.5ZM5.83,64H55.28a9.53,9.53,0,0,1,0-9.5H5.83A17.05,17.05,0,0,1,5.83,64Z"/><path class="cls-3" d="M57.75,65.5h-53A4.75,4.75,0,0,1,0,60.75v-3A4.75,4.75,0,0,1,4.75,53h53a.75.75,0,0,1,0,1.5h-53A3.26,3.26,0,0,0,1.5,57.75v3A3.26,3.26,0,0,0,4.75,64h53a.75.75,0,0,1,0,1.5Z"/><path class="cls-3" d="M64.75,54.5h-54A3.75,3.75,0,0,1,7,50.75v-5A3.75,3.75,0,0,1,10.75,42h54a.75.75,0,0,1,0,1.5h-54A2.25,2.25,0,0,0,8.5,45.75v5A2.25,2.25,0,0,0,10.75,53h54a.75.75,0,0,1,0,1.5Z"/><path class="cls-3" d="M55.92,50.75H52.29a.75.75,0,1,1,0-1.5h3.63a.75.75,0,0,1,0,1.5Z"/><path class="cls-3" d="M48.29,50.75h-18a.75.75,0,1,1,0-1.5h18a.75.75,0,0,1,0,1.5Z"/><path class="cls-3" d="M37.92,47.25H20.29a.75.75,0,1,1,0-1.5H37.92a.75.75,0,0,1,0,1.5Z"/><path class="cls-3" d="M48.92,61.5H27.29a.75.75,0,1,1,0-1.5H48.92a.75.75,0,0,1,0,1.5Z"/><path class="cls-3" d="M35.92,58H33.25a.75.75,0,0,1,0-1.5h2.67a.75.75,0,0,1,0,1.5Z"/><path class="cls-3" d="M29.25,58h-13a.75.75,0,1,1,0-1.5h13a.75.75,0,0,1,0,1.5Z"/><path class="cls-1" d="M36.75.75h0a17,17,0,0,0-17,17h0a25,25,0,0,0,25,25h9v-25A17,17,0,0,0,36.75.75Z"/><path class="cls-2" d="M47.8,4.85a15.49,15.49,0,0,0-20,14.81h0A22.78,22.78,0,0,0,50.55,42.44h3.2V17.75A16.92,16.92,0,0,0,47.8,4.85Z"/><path class="cls-3" d="M53.75,43.5h-9A25.78,25.78,0,0,1,19,17.75a17.75,17.75,0,0,1,35.5,0v25A.75.75,0,0,1,53.75,43.5Zm-17-42A16.27,16.27,0,0,0,20.5,17.75,24.28,24.28,0,0,0,44.75,42H53V17.75A16.27,16.27,0,0,0,36.75,1.5Z"/><path class="cls-1" d="M53.75,18.75h-14v10a14,14,0,0,0,14,14h0Z"/><path class="cls-2" d="M46.75,18.75v10c0,7.73,3.13,14,7,14v-24Z"/><path class="cls-3" d="M53.75,43.5A14.77,14.77,0,0,1,39,28.75v-10a.76.76,0,0,1,.75-.75h14a.75.75,0,0,1,.75.75v24A.75.75,0,0,1,53.75,43.5ZM40.5,19.5v9.25A13.27,13.27,0,0,0,53,42V19.5Z"/><polygon class="cls-1" points="41.35 22.3 36.75 26.25 32.15 22.3 32.15 14.75 41.35 14.75 41.35 22.3"/><path class="cls-3" d="M36.75,27a.76.76,0,0,1-.49-.18l-4.6-3.95a.73.73,0,0,1-.26-.57V14.75a.75.75,0,0,1,.75-.75h9.2a.75.75,0,0,1,.75.75V22.3a.73.73,0,0,1-.26.57l-4.6,3.95A.76.76,0,0,1,36.75,27ZM32.9,22l3.85,3.3L40.6,22V15.5H32.9Zm8.45.34h0Z"/><circle class="cls-1" cx="27.25" cy="14.75" r="9.5"/><circle class="cls-1" cx="46.25" cy="14.75" r="9.5"/><path class="cls-2" d="M36.75,14.75a9.53,9.53,0,0,0-.52-3.08,9.48,9.48,0,0,0-14,11.16,9.49,9.49,0,0,0,14.48-8.08Z"/><path class="cls-2" d="M55.75,14.75a9.53,9.53,0,0,0-.52-3.08,9.48,9.48,0,0,0-14,11.16,9.49,9.49,0,0,0,14.48-8.08Z"/><path class="cls-3" d="M27.25,25A10.25,10.25,0,1,1,37.5,14.75,10.26,10.26,0,0,1,27.25,25Zm0-19A8.75,8.75,0,1,0,36,14.75,8.76,8.76,0,0,0,27.25,6Z"/><path class="cls-3" d="M46.25,25A10.25,10.25,0,1,1,56.5,14.75,10.26,10.26,0,0,1,46.25,25Zm0-19A8.75,8.75,0,1,0,55,14.75,8.76,8.76,0,0,0,46.25,6Z"/><path class="cls-3" d="M27.25,25A10.25,10.25,0,1,1,37.5,14.75,10.26,10.26,0,0,1,27.25,25Zm0-19A8.75,8.75,0,1,0,36,14.75,8.76,8.76,0,0,0,27.25,6Z"/><circle class="cls-1" cx="27.25" cy="14.75" r="3.5"/><circle class="cls-1" cx="46.25" cy="14.75" r="3.5"/><path class="cls-2" d="M30.75,14.75a3.49,3.49,0,0,0-.34-1.48l-.16,0a3.48,3.48,0,0,0-3.16,5l.16,0A3.5,3.5,0,0,0,30.75,14.75Z"/><path class="cls-2" d="M49.75,14.75a3.49,3.49,0,0,0-.34-1.48l-.16,0a3.48,3.48,0,0,0-3.16,5l.16,0A3.5,3.5,0,0,0,49.75,14.75Z"/><path class="cls-3" d="M27.25,19a4.25,4.25,0,1,1,4.25-4.25A4.26,4.26,0,0,1,27.25,19Zm0-7A2.75,2.75,0,1,0,30,14.75,2.75,2.75,0,0,0,27.25,12Z"/><path class="cls-3" d="M46.25,19a4.25,4.25,0,1,1,4.25-4.25A4.26,4.26,0,0,1,46.25,19Zm0-7A2.75,2.75,0,1,0,49,14.75,2.75,2.75,0,0,0,46.25,12Z"/><path class="cls-3" d="M25.25,6a.76.76,0,0,1-.75-.75A3.75,3.75,0,0,0,20.75,1.5.76.76,0,0,1,20,.75.76.76,0,0,1,20.75,0,5.25,5.25,0,0,1,26,5.25.76.76,0,0,1,25.25,6Z"/><path class="cls-3" d="M48.75,6A.76.76,0,0,1,48,5.25,5.26,5.26,0,0,1,53.25,0a.75.75,0,0,1,0,1.5A3.76,3.76,0,0,0,49.5,5.25.75.75,0,0,1,48.75,6Z"/><path class="cls-4" d="M14.75,36.5h-4a.75.75,0,0,1,0-1.5h4a.75.75,0,0,1,0,1.5Z"/><path class="cls-4" d="M12.75,38.5a.76.76,0,0,1-.75-.75v-4a.75.75,0,0,1,1.5,0v4A.75.75,0,0,1,12.75,38.5Z"/><circle class="cls-4" cx="12.75" cy="29.75" r="0.75"/><circle class="cls-4" cx="12.75" cy="26.75" r="0.75"/><circle class="cls-4" cx="12.75" cy="22.75" r="0.75"/><circle class="cls-4" cx="12.75" cy="16.75" r="0.75"/><path class="cls-4" d="M64.75,18.75h-4a.75.75,0,0,1,0-1.5h4a.75.75,0,0,1,0,1.5Z"/><path class="cls-4" d="M62.75,20.75A.76.76,0,0,1,62,20V16a.75.75,0,0,1,1.5,0v4A.75.75,0,0,1,62.75,20.75Z"/><circle class="cls-4" cx="62.75" cy="24" r="0.75"/><circle class="cls-4" cx="62.75" cy="27" r="0.75"/><circle class="cls-4" cx="62.75" cy="31" r="0.75"/><circle class="cls-4" cx="62.75" cy="37" r="0.75"/><path class="cls-4" d="M4.75,26.5h-4a.75.75,0,0,1,0-1.5h4a.75.75,0,0,1,0,1.5Z"/><path class="cls-4" d="M2.75,28.5A.76.76,0,0,1,2,27.75v-4a.75.75,0,0,1,1.5,0v4A.76.76,0,0,1,2.75,28.5Z"/><path class="cls-4" d="M9.75,6.5h-4a.75.75,0,0,1,0-1.5h4a.75.75,0,0,1,0,1.5Z"/><path class="cls-4" d="M7.75,8.5A.76.76,0,0,1,7,7.75v-4a.75.75,0,0,1,1.5,0v4A.76.76,0,0,1,7.75,8.5Z"/><path class="cls-4" d="M60.76,6.5h-4a.75.75,0,0,1,0-1.5h4a.75.75,0,0,1,0,1.5Z"/><path class="cls-4" d="M58.76,8.5A.75.75,0,0,1,58,7.75v-4a.75.75,0,0,1,1.5,0v4A.76.76,0,0,1,58.76,8.5Z"/></g></g></svg>